<?xml version="1.0" encoding="UTF-8"?><svg id="Capa_2" xmlns="http://www.w3.org/2000/svg" viewBox="0 0 1362.38 748.04"><defs><style>.cls-1{fill:#fff;}.cls-2{fill:none;}</style></defs><g id="Capa_1-2"><rect class="cls-2" width="1362.38" height="748.04"/><path class="cls-1" d="M1065.13,538.72h3.01s0,8.57,0,8.57c-1.09.9-2.35,1.59-3.8,2.07-1.44.48-2.95.72-4.52.72-2.22,0-4.22-.49-5.99-1.46-1.78-.97-3.17-2.31-4.19-4.02-1.01-1.7-1.52-3.62-1.52-5.76,0-2.13.51-4.06,1.52-5.77,1.02-1.71,2.42-3.05,4.21-4.01,1.79-.96,3.8-1.44,6.04-1.44,1.76,0,3.35.29,4.78.87,1.43.58,2.65,1.42,3.65,2.53l-1.95,1.94c-1.76-1.7-3.88-2.54-6.37-2.54-1.67,0-3.17.36-4.5,1.08-1.33.72-2.37,1.73-3.12,3.01-.75,1.29-1.13,2.74-1.13,4.34,0,1.59.38,3.03,1.13,4.31.75,1.29,1.79,2.3,3.12,3.03,1.33.73,2.82,1.1,4.47,1.1,1.97,0,3.68-.47,5.15-1.41v-7.15Z"/><path class="cls-1" d="M1097.19,537.68l-11.18,3.34-.74,5.95-3.1.93,3.24-23.89,2.98-.89,15.85,18.18-3.16.94-3.89-4.57ZM1095.42,535.58l-7.62-8.95-1.46,11.67,9.08-2.72Z"/><path class="cls-1" d="M1118.5,533.37c-1.58.37-2.95.44-4.13.21l-.3-2.69c1.11.2,2.34.16,3.7-.13,1.36-.29,2.63-.79,3.8-1.52,1.55-.95,2.54-1.93,2.99-2.93.44-1,.39-1.93-.15-2.8-.39-.64-.92-1.03-1.59-1.18-.67-.14-1.37-.13-2.12.03-.75.17-1.76.46-3.05.89-1.61.53-2.96.89-4.03,1.09-1.07.19-2.13.13-3.18-.2-1.05-.32-1.94-1.08-2.68-2.28-.61-1-.91-2.06-.88-3.18.03-1.12.43-2.26,1.2-3.4.77-1.14,1.95-2.2,3.53-3.17,1.1-.68,2.28-1.21,3.52-1.58,1.24-.37,2.41-.53,3.51-.47l.44,2.68c-1.09-.01-2.16.12-3.21.41-1.05.29-2,.7-2.86,1.23-1.51.93-2.48,1.91-2.89,2.93-.42,1.02-.35,1.96.18,2.84.39.64.93,1.03,1.6,1.17.67.14,1.4.12,2.16-.04s1.77-.46,3.01-.88c1.61-.53,2.95-.89,4.02-1.08,1.06-.19,2.12-.13,3.16.19,1.04.31,1.93,1.06,2.65,2.24.6.98.89,2.04.85,3.18s-.45,2.28-1.24,3.42c-.8,1.14-1.99,2.2-3.57,3.18-1.41.87-2.9,1.49-4.48,1.86Z"/><path class="cls-1" d="M1131.35,500.4l-5.3,5.35-1.94-1.92,12.8-12.89,1.94,1.92-5.3,5.35,13.65,13.55-2.19,2.21-13.65-13.55Z"/><path class="cls-1" d="M1168.78,481.93l-8.21.7c-.26.53-.47.94-.64,1.22l-2.73,4.69,5.77,3.36-1.58,2.71-18.98-11.06,4.31-7.4c1.43-2.46,3.15-4.05,5.14-4.77,2-.73,4.02-.49,6.08.71,1.46.85,2.5,1.94,3.11,3.26.61,1.32.76,2.79.45,4.4l8.99-.79-1.72,2.95ZM1158.75,478.01c-.21-1.34-1.01-2.4-2.38-3.2-1.37-.8-2.69-.96-3.95-.48-1.26.48-2.39,1.57-3.39,3.29l-2.69,4.61,8.54,4.98,2.69-4.61c1-1.72,1.39-3.24,1.18-4.58Z"/><path class="cls-1" d="M1176.4,459.49c-1.36,1.5-2.99,2.55-4.9,3.13-1.9.59-3.88.63-5.94.14-2.05-.49-3.8-1.43-5.23-2.82-1.43-1.39-2.41-3.06-2.94-5.01-.53-1.95-.54-4.01-.02-6.17.51-2.14,1.45-3.95,2.81-5.46,1.36-1.5,2.99-2.54,4.88-3.12,1.89-.58,3.88-.62,5.95-.12s3.82,1.43,5.25,2.81c1.42,1.37,2.4,3.04,2.93,4.99.53,1.96.54,4,.03,6.14-.52,2.16-1.46,3.98-2.82,5.49ZM1176.45,448.86c-.41-1.42-1.16-2.64-2.24-3.67-1.08-1.02-2.39-1.72-3.94-2.09-1.55-.37-3.03-.34-4.45.08-1.42.42-2.64,1.17-3.65,2.25s-1.71,2.4-2.08,3.97c-.38,1.57-.36,3.07.05,4.51.41,1.44,1.15,2.67,2.23,3.7,1.08,1.02,2.39,1.72,3.94,2.09,1.55.37,3.03.35,4.46-.08,1.42-.42,2.64-1.18,3.66-2.28,1.02-1.1,1.71-2.43,2.09-4,.38-1.57.36-3.06-.05-4.48Z"/><path class="cls-1" d="M1159.84,411.94l-.56-3.09,18.92-3.46-2.14-11.7,2.68-.49,2.7,14.78-21.61,3.95Z"/><path class="cls-1" d="M1171.47,376.11c-.1,2.03-.7,3.87-1.8,5.53s-2.6,2.95-4.5,3.87c-1.9.92-3.84,1.3-5.83,1.13-1.99-.16-3.8-.84-5.46-2.01-1.65-1.18-2.96-2.76-3.93-4.76-.96-1.98-1.39-3.98-1.28-6,.1-2.02.7-3.86,1.79-5.51,1.1-1.65,2.61-2.94,4.53-3.87,1.92-.93,3.87-1.32,5.84-1.15,1.97.16,3.78.83,5.43,2,1.65,1.18,2.95,2.75,3.91,4.73.97,2,1.4,4.01,1.3,6.03ZM1164.77,367.87c-1.22-.84-2.57-1.31-4.05-1.42-1.48-.11-2.94.18-4.37.88-1.43.69-2.56,1.66-3.4,2.88-.83,1.23-1.3,2.58-1.4,4.06-.1,1.48.2,2.94.91,4.39.7,1.45,1.67,2.6,2.9,3.46,1.23.86,2.58,1.34,4.07,1.45,1.48.11,2.94-.19,4.37-.88,1.43-.69,2.56-1.65,3.4-2.88.83-1.23,1.3-2.59,1.39-4.09.09-1.5-.22-2.97-.92-4.42s-1.66-2.59-2.88-3.43Z"/><path class="cls-1" d="M1151.86,345.97c-.11,2.33-1.31,4.57-3.61,6.71l-9.14,8.52-2.14-2.3,9.04-8.43c3.44-3.21,3.76-6.32.95-9.33-1.37-1.47-2.84-2.2-4.42-2.19-1.58.01-3.24.83-4.98,2.46l-9.04,8.43-2.07-2.23,9.13-8.51c2.31-2.15,4.63-3.2,6.96-3.14,2.33.06,4.49,1.16,6.49,3.3,2,2.14,2.94,4.38,2.83,6.71Z"/><path class="cls-1" d="M1100.82,330.68l11.03-18.99,2.23,1.29,3.17,20.78,8.23-14.16,2.71,1.57-11.03,18.99-2.23-1.29-3.17-20.78-8.22,14.17-2.71-1.58Z"/><path class="cls-1" d="M1077.25,312.25l-2.93-.69,1.96-8.34c1.27-.63,2.66-1.01,4.17-1.15,1.52-.14,3.04-.03,4.56.33,2.16.51,3.99,1.44,5.5,2.79,1.51,1.35,2.56,2.98,3.16,4.87.6,1.89.65,3.88.16,5.95-.49,2.08-1.42,3.83-2.8,5.27-1.38,1.44-3.05,2.42-5.01,2.95-1.96.53-4.03.53-6.21.02-1.71-.4-3.2-1.05-4.46-1.94-1.26-.89-2.26-1.99-2.98-3.3l2.34-1.45c1.32,2.05,3.2,3.36,5.62,3.93,1.63.38,3.17.38,4.63-.02,1.46-.4,2.7-1.14,3.73-2.22,1.03-1.08,1.73-2.4,2.09-3.97.36-1.55.33-3.03-.11-4.46-.44-1.42-1.22-2.65-2.35-3.66-1.12-1.02-2.49-1.72-4.1-2.09-1.91-.45-3.69-.38-5.33.2l-1.64,6.96Z"/><path class="cls-1" d="M1043.62,302.76l-.11-2.73,15.93-.64.88,21.95-15.49.62-.11-2.73,12.35-.49-.27-6.74-11.01.44-.11-2.66,11-.44-.28-7.09-12.79.51Z"/><path class="cls-1" d="M325.69,126.05c105.17,0-69.08,258.37-76.29,368.62-.3,4.63,3.32,8.67,7.95,8.98,18.8,1.27,58.77-5.13,116.32-36.32l1.54,3.89c3.3,8.37.53,17.91-6.76,23.19-25.6,18.52-87.22,58.24-144.97,58.24-75.32,0-63.96-101.52-23.31-224.76,55.89-169.46,64.56-201.84,125.53-201.84Z"/><path class="cls-1" d="M461.38,350.6c58.28,0-75.62,142.56-21.82,142.56,37.66,0,60.67-46.33,60.67-46.33l7.17,28.09s-45.11,61.87-87.27,61.87c-28.69,0-50.44-25.68-50.44-43.31,0-39.08,43.86-142.89,91.68-142.89Z"/><path class="cls-1" d="M534.31,379.3c16.44,0-11.36,52-11.36,82.19s31.23,32.73,13.75,50.21-43.93-8.97-43.93-36.46,23.31-95.94,41.54-95.94Z"/><path class="cls-1" d="M827.21,356.98c13.55,13.55,3,17.6-17.78,48.47-13.17,19.56-24.26,46.7-24.26,59.73,0,23.96,1.2,32.08-15.14,32.08-18.33,0-11.26-49.16-7.97-62.17,6.74-26.66,51.91-91.36,65.16-78.11Z"/><path class="cls-1" d="M578.14,363.95c21.32,0-7.77,53.22-7.77,77.53,0,0,53.2-62.19,87.27-62.19s-10.66,81.1,11.55,103.32c10.96,10.96,31.34,9.8,31.34,20.36s-16.3,15.8-28.55,15.8c0,0-48.02,5.78-48.02-38.65s17.14-72.13,17.14-72.13c-25.94,12.1-53.7,73.32-75.91,73.32-14.94,0-40.23.54-26.59-43.36,13.64-43.91,20.41-73.99,39.54-73.99Z"/><path class="cls-1" d="M679.36,464.64c-6.52-48.69,60.38-100.68,91.46-100.68s23.31,47.62,23.31,47.62l-12.95-.2s-1.2-17.53-10.96-17.53-49.41,29.89-49.41,48.82c0,8.97,38.69-11.28,52.72-33.43v52.36s-88.49,45.49-94.17,3.05Z"/><path class="cls-1" d="M825.71,510.5c21.52,0,20.62-52,28.69-63.36,8.07-11.36,25.17-24.39,50.81-33.47,15.74-5.58,26.45-24.66,25.4-27.5-1.05-2.84-18.04-7.41-39.75-3.44-31.61,5.78-40.42,19.68-40.42,19.68,0,0,12.76-28.64,5.74-30.66-5.53-1.59-49.9,50.58-49.9,109.16,0,28.09,19.43,29.59,19.43,29.59Z"/><path class="cls-1" d="M994.98,327.77c0-28.69-33.87-2.19-33.87-2.19,0,0-1.59-39.05-26.5-21.12-24.91,17.93,5.78,31.28,5.78,31.28-11.26-1-38.61,11.71-25.31,26.3,16.34,17.93,33.08-8.97,33.08-8.97,0,0-9.96,25.88,19.33,25.88s3.19-31.45,3.19-31.45c0,0,24.31,8.97,24.31-19.73ZM952.81,345.55c-4.4,0-5.69-1.6-5.69-5.44s3.57-6.96,7.97-6.96,6.45,3.12,6.45,6.96-4.33,5.44-8.73,5.44Z"/><path class="cls-1" d="M912.21,538.3c-38.54-37.44-17.48-104.48,15.43-120.88,1.28-.64,2.77.46,2.56,1.88-16.19,112.87,65.47,104.33,86.79,91.21,21.52-13.25-50.98,80.05-104.78,27.8Z"/><path class="cls-1" d="M1017.07,370.41c19.17-24.65,74.75,42.46,86.9,54.6,8.06,8.06,9.57,18.76,9.67,25.04.05,3.13-2.35,5.77-5.48,6.01-10.26.78-34.38-.89-60.98-27.3-35.27-35.03-40.8-44.6-30.11-58.35Z"/><path class="cls-1" d="M984.92,495.74c-11.63.45-22.57-5.68-28.53-15.68-26.25-43.98,21.63-95.01,43.57-95.01,23.91,0,33.18,15.22,33.18,15.22l-3.32,11.66s-44.93-27.03-46.69,42.93c-.05,1.95,2.01,3.25,3.76,2.37,8.96-4.52,32.83-22.01,44.16-47.98,0,0,20.58,7.98,21.3,16.04,0,37.95-36.95,69.26-67.42,70.43Z"/></g></svg>